Coordinates
version=1
nRows=21
nColumns=11
inDegrees=yes

Units are S.I. units (second, meters, Newtons, ...)
If the header above contains a line with 'inDegrees', this indicates whether rotational values are in degrees (yes) or radians (no).

endheader
time	pelvis_tilt	pelvis_tx	pelvis_ty	hip_flexion_l	hip_flexion_r	knee_angle_l	knee_angle_r	ankle_angle_l	ankle_angle_r	lumbar_extension
      5.26000000	     39.57886957	      0.62958309	      1.11406529	     33.83995041	     30.91587616	    -65.73265486	    -64.84735723	    -23.95633917	    -24.67672931	    -43.77437455
      5.27000000	     39.67115687	      0.62957730	      1.11405029	     33.74714167	     30.81058947	    -65.74224159	    -64.07587204	    -24.04976408	    -24.51295891	    -43.87373572
      5.28000000	     39.67698522	      0.62965521	      1.11397375	     33.75439111	     30.80797968	    -65.78465550	    -63.31745406	    -24.04574035	    -24.48454610	    -43.88055686
      5.29000000	     39.78445158	      0.62970128	      1.11405047	     33.61780897	     30.68400950	    -65.80221421	    -62.52174322	    -23.96215125	    -24.41601907	    -43.97692335
      5.30000000	     39.79584347	      0.62982029	      1.11399466	     33.61530695	     30.67183412	    -65.84328273	    -61.80123722	    -23.97171530	    -24.39715258	    -43.98590963
      5.31000000	     39.92685906	      0.62981238	      1.11405204	     33.47392450	     30.51873226	    -65.86905162	    -61.03528623	    -24.02125672	    -24.33261977	    -44.11968193
      5.32000000	     40.00755318	      0.62987541	      1.11413795	     33.36966336	     30.42424441	    -65.88085622	    -60.32302937	    -23.99091948	    -24.39099925	    -44.19990550
      5.33000000	     40.01961149	      0.62996944	      1.11402433	     33.37594718	     30.42007302	    -65.93911644	    -59.66851347	    -24.00990204	    -24.37402177	    -44.19622876
      5.34000000	     40.12994644	      0.63000556	      1.11409789	     33.25321400	     30.30506553	    -65.97502478	    -59.00923839	    -23.95536598	    -24.43015204	    -44.29823648
      5.35000000	     40.21826495	      0.63004879	      1.11414843	     33.15080988	     30.22071717	    -66.00948018	    -58.35685363	    -23.92271294	    -24.61471448	    -44.38242587
      5.36000000	     40.29897132	      0.63011557	      1.11418933	     33.06026202	     30.12867421	    -66.04462161	    -57.74589329	    -23.96029809	    -24.70827844	    -44.45387924
      5.37000000	     40.38858276	      0.63014157	      1.11414774	     32.96004487	     30.04952148	    -66.08272567	    -57.18941945	    -23.88861912	    -24.78845639	    -44.53856763
      5.38000000	     40.40252671	      0.63021026	      1.11403529	     32.96126600	     30.05989075	    -66.14249030	    -56.66231889	    -23.87629527	    -24.79087057	    -44.53907087
      5.39000000	     40.50566599	      0.63026278	      1.11406020	     32.85512216	     29.94386769	    -66.18769718	    -56.14452321	    -23.78637876	    -25.11218922	    -44.63702438
      5.40000000	     40.58396129	      0.63031293	      1.11413805	     32.76107914	     29.85567415	    -66.20624135	    -55.68206025	    -23.78624680	    -25.16765524	    -44.70703111
      5.41000000	     40.64359894	      0.63036642	      1.11414580	     32.69867714	     29.80922270	    -66.24242512	    -55.26809183	    -23.69069968	    -25.30877438	    -44.75861653
      5.42000000	     40.73052312	      0.63043159	      1.11414359	     32.61208146	     29.70254714	    -66.29037285	    -54.84648270	    -23.61023614	    -25.43144815	    -44.83395909
      5.43000000	     40.74714949	      0.63049237	      1.11410666	     32.59354702	     29.70658515	    -66.33078190	    -54.49963185	    -23.60241073	    -25.41319235	    -44.83311454
      5.44000000	     40.86565423	      0.63049026	      1.11414784	     32.46165175	     29.57554558	    -66.37796700	    -54.17272075	    -23.44111394	    -25.55714356	    -44.95393387
      5.45000000	     40.93378804	      0.63053113	      1.11418818	     32.38357950	     29.50840652	    -66.42414024	    -53.88151435	    -23.35699419	    -25.65601959	    -45.01151280
      5.46000000	     40.98862574	      0.63060356	      1.11423364	     32.32633178	     29.45938314	    -66.46783762	    -53.64995595	    -23.26305460	    -25.85898608	    -45.05809771
